<svg xmlns="http://www.w3.org/2000/svg" xmlns:ev="http://www.w3.org/2001/xml-events" xmlns:xlink="http://www.w3.org/1999/xlink" width="793.701" height="1122.518" class="st15" color-interpolation-filters="sRGB" viewBox="0 0 595.276 841.89" xml:space="preserve"><style type="text/css">.st1{visibility:visible}.st2,.st3{stroke-linecap:butt}.st2{fill:#000;fill-opacity:.6;filter:url(#filter_3.3333334922791);stroke:#000;stroke-opacity:.6}.st3{fill:url(#grad0-7);stroke:#15383a;stroke-width:1}.st4{fill:#fff;font-family:Calibri;font-size:.833336em}.st5,.st6{fill:url(#grad0-15);stroke:#a78315;stroke-linecap:butt;stroke-width:1}.st6{fill:url(#grad0-51);stroke:#3a5b6b}.st7,.st8{stroke:#163e41}.st7{marker-end:url(#mrkr5-65);stroke-linecap:butt;stroke-width:1}.st8{fill:#163e41;fill-opacity:1;stroke-opacity:1;stroke-width:.28409090909091}.st10,.st9{fill:red}.st9{font-size:1em}.st10{font-family:Calibri;font-size:.833336em}.st11{fill:none;stroke:#15383a;stroke-width:1}.st11,.st12,.st13,.st14{stroke-dasharray:8,4;stroke-linecap:butt}.st12{fill:#000;fill-opacity:.6;filter:url(#filter_3.3333334922791);stroke:#000;stroke-opacity:.6}.st13,.st14{fill:url(#grad0-51);stroke:#3a5b6b;stroke-width:1}.st14{fill:url(#grad0-319);stroke:#20473e}.st15{fill:none;fill-rule:evenodd;font-size:12px;overflow:visible;stroke-linecap:square;stroke-miterlimit:3}</style><defs id="Patterns_And_Gradients"><linearGradient id="grad0-7" x1="0" x2="1" y1="0" y2="0" gradientTransform="rotate(90 0.5 0.5)"><stop offset="0" stop-color="#2c757b" stop-opacity="1"/><stop offset="1" stop-color="#1c4b4e" stop-opacity="1"/></linearGradient><linearGradient id="grad0-15" x1="0" x2="1" y1="0" y2="0" gradientTransform="rotate(90 0.5 0.5)"><stop offset="0" stop-color="#f2dc9a" stop-opacity="1"/><stop offset="1" stop-color="#e1b01c" stop-opacity="1"/></linearGradient><linearGradient id="grad0-51" x1="0" x2="1" y1="0" y2="0" gradientTransform="rotate(90 0.5 0.5)"><stop offset="0" stop-color="#96b6c5" stop-opacity="1"/><stop offset="1" stop-color="#4e7b8f" stop-opacity="1"/></linearGradient><linearGradient id="grad0-319" x1="0" x2="1" y1="0" y2="0" gradientTransform="rotate(90 0.5 0.5)"><stop offset="0" stop-color="#459582" stop-opacity="1"/><stop offset="1" stop-color="#2c5f53" stop-opacity="1"/></linearGradient></defs><defs id="Markers"><g id="lend5"><path d="M 2 1 L 0 0 L 1.98117 -0.993387 C 1.67173 -0.364515 1.67301 0.372641 1.98465 1.00043" style="stroke:none"/></g><marker id="mrkr5-65" class="st8" markerUnits="strokeWidth" orient="auto" overflow="visible" refX="-6.16"><use transform="scale(-3.52,-3.52)" xlink:href="#lend5"/></marker></defs><defs id="Filters"><filter id="filter_3.3333334922791"><feGaussianBlur stdDeviation="3.333"/></filter></defs><g><title>Page-1</title><g id="shape10-1" transform="translate(127.559,-711.093)"><title>Rounded Rectangle</title><desc>S1.cpp</desc><g id="shadow10-2" class="st1"><path d="M11.34 841.89 L102.05 841.89 A11.3384 11.3384 -180 0 0 113.39 830.55 L113.39 787.63 A11.3384 11.3384 -180 0 0 102.05 776.29 L11.34 776.29 A11.3384 11.3384 -180 0 0 0 787.63 L0 830.55 A11.3384 11.3384 -180 0 0 11.34 841.89 Z" class="st2" transform="matrix(1,0,0,1,0,3.00236)"/></g><path d="M11.34 841.89 L102.05 841.89 A11.3384 11.3384 -180 0 0 113.39 830.55 L113.39 787.63 A11.3384 11.3384 -180 0 0 102.05 776.29 L11.34 776.29 A11.3384 11.3384 -180 0 0 0 787.63 L0 830.55 A11.3384 11.3384 -180 0 0 11.34 841.89 Z" class="st3"/><text x="4" y="789.29" class="st4">S1.cpp</text></g><g id="shape12-9" transform="translate(127.559,-716.762)"><title>Rounded Rectangle.12</title><desc>void a() {…}</desc><g id="shadow12-10" class="st1"><path d="M8.91 841.89 L104.48 841.89 A8.90683 8.90683 -180 0 0 113.39 832.98 A8.90683 8.90683 -180 0 0 104.48 824.08 L8.91 824.08 A8.90683 8.90683 -180 0 0 -0 832.98 A8.90683 8.90683 -180 0 0 8.91 841.89 Z" class="st2" transform="matrix(1,0,0,1,0,3.00236)"/></g><path d="M8.91 841.89 L104.48 841.89 A8.90683 8.90683 -180 0 0 113.39 832.98 A8.90683 8.90683 -180 0 0 104.48 824.08 L8.91 824.08 A8.90683 8.90683 -180 0 0 -0 832.98 A8.90683 8.90683 -180 0 0 8.91 841.89 Z" class="st5"/><text x="34.87" y="835.98" class="st4">void a() {…}</text></g><g id="shape13-17" transform="translate(127.559,-736.202)"><title>Rounded Rectangle.13</title><desc>Kernel x() {b();}</desc><g id="shadow13-18" class="st1"><path d="M8.91 841.89 L104.48 841.89 A8.90683 8.90683 -180 0 0 113.39 832.98 A8.90683 8.90683 -180 0 0 104.48 824.08 L8.91 824.08 A8.90683 8.90683 -180 0 0 -0 832.98 A8.90683 8.90683 -180 0 0 8.91 841.89 Z" class="st2" transform="matrix(1,0,0,1,0,3.00236)"/></g><path d="M8.91 841.89 L104.48 841.89 A8.90683 8.90683 -180 0 0 113.39 832.98 A8.90683 8.90683 -180 0 0 104.48 824.08 L8.91 824.08 A8.90683 8.90683 -180 0 0 -0 832.98 A8.90683 8.90683 -180 0 0 8.91 841.89 Z" class="st5"/><text x="26" y="835.98" class="st4">Kernel x() {b();}</text></g><g id="shape14-24" transform="translate(263.622,-711.093)"><title>Rounded Rectangle.14</title><desc>S2.cpp</desc><g id="shadow14-25" class="st1"><path d="M11.34 841.89 L102.05 841.89 A11.3384 11.3384 -180 0 0 113.39 830.55 L113.39 787.63 A11.3384 11.3384 -180 0 0 102.05 776.29 L11.34 776.29 A11.3384 11.3384 -180 0 0 0 787.63 L0 830.55 A11.3384 11.3384 -180 0 0 11.34 841.89 Z" class="st2" transform="matrix(1,0,0,1,0,3.00236)"/></g><path d="M11.34 841.89 L102.05 841.89 A11.3384 11.3384 -180 0 0 113.39 830.55 L113.39 787.63 A11.3384 11.3384 -180 0 0 102.05 776.29 L11.34 776.29 A11.3384 11.3384 -180 0 0 0 787.63 L0 830.55 A11.3384 11.3384 -180 0 0 11.34 841.89 Z" class="st3"/><text x="4" y="789.29" class="st4">S2.cpp</text></g><g id="shape15-31" transform="translate(263.622,-716.762)"><title>Rounded Rectangle.15</title><desc>void b() {…}</desc><g id="shadow15-32" class="st1"><path d="M8.91 841.89 L104.48 841.89 A8.90683 8.90683 -180 0 0 113.39 832.98 A8.90683 8.90683 -180 0 0 104.48 824.08 L8.91 824.08 A8.90683 8.90683 -180 0 0 -0 832.98 A8.90683 8.90683 -180 0 0 8.91 841.89 Z" class="st2" transform="matrix(1,0,0,1,0,3.00236)"/></g><path d="M8.91 841.89 L104.48 841.89 A8.90683 8.90683 -180 0 0 113.39 832.98 A8.90683 8.90683 -180 0 0 104.48 824.08 L8.91 824.08 A8.90683 8.90683 -180 0 0 -0 832.98 A8.90683 8.90683 -180 0 0 8.91 841.89 Z" class="st5"/><text x="34.64" y="835.98" class="st4">void b() {…}</text></g><g id="shape16-38" transform="translate(263.622,-736.202)"><title>Rounded Rectangle.16</title><desc>Kernel y() {a();}</desc><g id="shadow16-39" class="st1"><path d="M8.91 841.89 L104.48 841.89 A8.90683 8.90683 -180 0 0 113.39 832.98 A8.90683 8.90683 -180 0 0 104.48 824.08 L8.91 824.08 A8.90683 8.90683 -180 0 0 -0 832.98 A8.90683 8.90683 -180 0 0 8.91 841.89 Z" class="st2" transform="matrix(1,0,0,1,0,3.00236)"/></g><path d="M8.91 841.89 L104.48 841.89 A8.90683 8.90683 -180 0 0 113.39 832.98 A8.90683 8.90683 -180 0 0 104.48 824.08 L8.91 824.08 A8.90683 8.90683 -180 0 0 -0 832.98 A8.90683 8.90683 -180 0 0 8.91 841.89 Z" class="st5"/><text x="26.14" y="835.98" class="st4">Kernel y() {a();}</text></g><g id="shape18-45" transform="translate(144.567,-674.646)"><title>Rectangle</title><desc>Front-end</desc><g id="shadow18-46" class="st1" transform="matrix(1,0,0,1,0,3.00236)"><rect width="79.37" height="17.814" x="0" y="824.076" class="st2"/></g><rect width="79.37" height="17.814" x="0" y="824.076" class="st6"/><text x="19.43" y="835.98" class="st4">Front-end</text></g><g id="shape19-53" transform="translate(280.63,-674.646)"><title>Rectangle.19</title><desc>Front-end</desc><g id="shadow19-54" class="st1" transform="matrix(1,0,0,1,0,3.00236)"><rect width="79.37" height="17.814" x="0" y="824.076" class="st2"/></g><rect width="79.37" height="17.814" x="0" y="824.076" class="st6"/><text x="19.43" y="835.98" class="st4">Front-end</text></g><g id="shape20-60" transform="translate(313.228,-711.093)"><title>Dynamic connector</title><path d="M7.09 841.89 L7.09 854.36" class="st7"/></g><g id="shape21-66" transform="translate(177.165,-711.093)"><title>Dynamic connector.21</title><path d="M7.09 841.89 L7.09 854.36" class="st7"/></g><g id="shape22-71" transform="translate(127.559,-590.412)"><title>Rounded Rectangle.22</title><desc>S1.bc</desc><g id="shadow22-72" class="st1"><path d="M11.34 841.89 L102.05 841.89 A11.3384 11.3384 -180 0 0 113.39 830.55 L113.39 787.63 A11.3384 11.3384 -180 0 0 102.05 776.29 L11.34 776.29 A11.3384 11.3384 -180 0 0 0 787.63 L0 830.55 A11.3384 11.3384 -180 0 0 11.34 841.89 Z" class="st2" transform="matrix(1,0,0,1,0,3.00236)"/></g><path d="M11.34 841.89 L102.05 841.89 A11.3384 11.3384 -180 0 0 113.39 830.55 L113.39 787.63 A11.3384 11.3384 -180 0 0 102.05 776.29 L11.34 776.29 A11.3384 11.3384 -180 0 0 0 787.63 L0 830.55 A11.3384 11.3384 -180 0 0 11.34 841.89 Z" class="st3"/><text x="4" y="789.29" class="st4">S1.bc</text></g><g id="shape23-78" transform="translate(127.559,-594.47)"><title>Rounded Rectangle.23</title><desc>void a() {…}</desc><g id="shadow23-79" class="st1"><path d="M8.91 841.89 L104.48 841.89 A8.90683 8.90683 -180 0 0 113.39 832.98 A8.90683 8.90683 -180 0 0 104.48 824.08 L8.91 824.08 A8.90683 8.90683 -180 0 0 -0 832.98 A8.90683 8.90683 -180 0 0 8.91 841.89 Z" class="st2" transform="matrix(1,0,0,1,0,3.00236)"/></g><path d="M8.91 841.89 L104.48 841.89 A8.90683 8.90683 -180 0 0 113.39 832.98 A8.90683 8.90683 -180 0 0 104.48 824.08 L8.91 824.08 A8.90683 8.90683 -180 0 0 -0 832.98 A8.90683 8.90683 -180 0 0 8.91 841.89 Z" class="st5"/><text x="34.87" y="835.98" class="st4">void a() {…}</text></g><g id="shape24-85" transform="translate(127.559,-614.305)"><title>Rounded Rectangle.24</title><desc>Kernel x() {b();} ‘S1’</desc><g id="shadow24-86" class="st1"><path d="M8.91 841.89 L104.48 841.89 A8.90683 8.90683 -180 0 0 113.39 832.98 A8.90683 8.90683 -180 0 0 104.48 824.08 L8.91 824.08 A8.90683 8.90683 -180 0 0 -0 832.98 A8.90683 8.90683 -180 0 0 8.91 841.89 Z" class="st2" transform="matrix(1,0,0,1,0,3.00236)"/></g><path d="M8.91 841.89 L104.48 841.89 A8.90683 8.90683 -180 0 0 113.39 832.98 A8.90683 8.90683 -180 0 0 104.48 824.08 L8.91 824.08 A8.90683 8.90683 -180 0 0 -0 832.98 A8.90683 8.90683 -180 0 0 8.91 841.89 Z" class="st5"/><text x="17.54" y="835.98" class="st4">Kernel x() {b();} <tspan class="st9">‘</tspan><tspan class="st9">S</tspan><tspan class="st9">1</tspan><tspan class="st9">’</tspan></text></g><g id="shape25-96" transform="translate(263.622,-590.412)"><title>Rounded Rectangle.25</title><desc>S2.bc</desc><g id="shadow25-97" class="st1"><path d="M11.34 841.89 L102.05 841.89 A11.3384 11.3384 -180 0 0 113.39 830.55 L113.39 787.63 A11.3384 11.3384 -180 0 0 102.05 776.29 L11.34 776.29 A11.3384 11.3384 -180 0 0 0 787.63 L0 830.55 A11.3384 11.3384 -180 0 0 11.34 841.89 Z" class="st2" transform="matrix(1,0,0,1,0,3.00236)"/></g><path d="M11.34 841.89 L102.05 841.89 A11.3384 11.3384 -180 0 0 113.39 830.55 L113.39 787.63 A11.3384 11.3384 -180 0 0 102.05 776.29 L11.34 776.29 A11.3384 11.3384 -180 0 0 0 787.63 L0 830.55 A11.3384 11.3384 -180 0 0 11.34 841.89 Z" class="st3"/><text x="4" y="789.29" class="st4">S2.bc</text></g><g id="shape26-103" transform="translate(263.622,-594.47)"><title>Rounded Rectangle.26</title><desc>void b() {…}</desc><g id="shadow26-104" class="st1"><path d="M8.91 841.89 L104.48 841.89 A8.90683 8.90683 -180 0 0 113.39 832.98 A8.90683 8.90683 -180 0 0 104.48 824.08 L8.91 824.08 A8.90683 8.90683 -180 0 0 -0 832.98 A8.90683 8.90683 -180 0 0 8.91 841.89 Z" class="st2" transform="matrix(1,0,0,1,0,3.00236)"/></g><path d="M8.91 841.89 L104.48 841.89 A8.90683 8.90683 -180 0 0 113.39 832.98 A8.90683 8.90683 -180 0 0 104.48 824.08 L8.91 824.08 A8.90683 8.90683 -180 0 0 -0 832.98 A8.90683 8.90683 -180 0 0 8.91 841.89 Z" class="st5"/><text x="34.64" y="835.98" class="st4">void b() {…}</text></g><g id="shape27-110" transform="translate(263.622,-614.305)"><title>Rounded Rectangle.27</title><desc>Kernel y() {a();} ‘S2’</desc><g id="shadow27-111" class="st1"><path d="M8.91 841.89 L104.48 841.89 A8.90683 8.90683 -180 0 0 113.39 832.98 A8.90683 8.90683 -180 0 0 104.48 824.08 L8.91 824.08 A8.90683 8.90683 -180 0 0 -0 832.98 A8.90683 8.90683 -180 0 0 8.91 841.89 Z" class="st2" transform="matrix(1,0,0,1,0,3.00236)"/></g><path d="M8.91 841.89 L104.48 841.89 A8.90683 8.90683 -180 0 0 113.39 832.98 A8.90683 8.90683 -180 0 0 104.48 824.08 L8.91 824.08 A8.90683 8.90683 -180 0 0 -0 832.98 A8.90683 8.90683 -180 0 0 8.91 841.89 Z" class="st5"/><text x="17.68" y="835.98" class="st4">Kernel y() {a();} <tspan class="st9">‘</tspan><tspan class="st9">S</tspan><tspan class="st9">2</tspan><tspan class="st9">’</tspan></text></g><g id="shape28-121" transform="translate(177.165,-674.646)"><title>Dynamic connector.28</title><path d="M7.09 841.89 L7.09 854.36" class="st7"/></g><g id="shape29-126" transform="translate(313.228,-674.646)"><title>Dynamic connector.29</title><path d="M7.09 841.89 L7.09 854.36" class="st7"/></g><g id="shape30-131" transform="translate(212.598,-552.353)"><title>Rectangle.30</title><desc>llvm-link</desc><g id="shadow30-132" class="st1" transform="matrix(1,0,0,1,0,3.00236)"><rect width="79.37" height="17.814" x="0" y="824.076" class="st2"/></g><rect width="79.37" height="17.814" x="0" y="824.076" class="st6"/><text x="23.54" y="835.98" class="st4">llvm-link</text></g><g id="shape31-138" transform="translate(320.315,-590.412)"><title>Dynamic connector.31</title><path d="M0 841.89 L0 850.18 A2.34 2.34 0 0 1 -2.34 852.52 L-65.69 852.52 A2.34 2.34 -180 0 0 -68.03 854.86 L-68.03 855.98" class="st7"/></g><g id="shape32-143" transform="translate(184.252,-590.412)"><title>Dynamic connector.32</title><path d="M0 841.89 L0 850.18 A2.34 2.34 -180 0 0 2.34 852.52 L65.69 852.52 A2.34 2.34 0 0 1 68.03 854.86 L68.03 855.98" class="st7"/></g><g id="shape33-148" transform="translate(195.591,-425.197)"><title>Rounded Rectangle.33</title><desc>S1S2.bc</desc><g id="shadow33-149" class="st1"><path d="M11.34 841.89 L102.05 841.89 A11.3384 11.3384 -180 0 0 113.39 830.55 L113.39 746.32 A11.3384 11.3384 -180 0 0 102.05 734.98 L11.34 734.98 A11.3384 11.3384 -180 0 0 0 746.32 L0 830.55 A11.3384 11.3384 -180 0 0 11.34 841.89 Z" class="st2" transform="matrix(1,0,0,1,0,3.00236)"/></g><path d="M11.34 841.89 L102.05 841.89 A11.3384 11.3384 -180 0 0 113.39 830.55 L113.39 746.32 A11.3384 11.3384 -180 0 0 102.05 734.98 L11.34 734.98 A11.3384 11.3384 -180 0 0 0 746.32 L0 830.55 A11.3384 11.3384 -180 0 0 11.34 841.89 Z" class="st3"/><text x="4" y="747.98" class="st4">S1S2.bc</text></g><g id="shape36-155" transform="translate(195.591,-489.991)"><title>Rounded Rectangle.36</title><desc>Kernel x() {b();} ‘S1’</desc><g id="shadow36-156" class="st1"><path d="M8.91 841.89 L104.48 841.89 A8.90683 8.90683 -180 0 0 113.39 832.98 A8.90683 8.90683 -180 0 0 104.48 824.08 L8.91 824.08 A8.90683 8.90683 -180 0 0 -0 832.98 A8.90683 8.90683 -180 0 0 8.91 841.89 Z" class="st2" transform="matrix(1,0,0,1,0,3.00236)"/></g><path d="M8.91 841.89 L104.48 841.89 A8.90683 8.90683 -180 0 0 113.39 832.98 A8.90683 8.90683 -180 0 0 104.48 824.08 L8.91 824.08 A8.90683 8.90683 -180 0 0 -0 832.98 A8.90683 8.90683 -180 0 0 8.91 841.89 Z" class="st5"/><text x="17.54" y="835.98" class="st4">Kernel x() {b();} <tspan class="st9">‘</tspan><tspan class="st9">S</tspan><tspan class="st9">1</tspan><tspan class="st9">’</tspan></text></g><g id="shape37-166" transform="translate(195.591,-469.745)"><title>Rounded Rectangle.37</title><desc>Kernel y() {a();} ‘S2’</desc><g id="shadow37-167" class="st1"><path d="M8.91 841.89 L104.48 841.89 A8.90683 8.90683 -180 0 0 113.39 832.98 A8.90683 8.90683 -180 0 0 104.48 824.08 L8.91 824.08 A8.90683 8.90683 -180 0 0 -0 832.98 A8.90683 8.90683 -180 0 0 8.91 841.89 Z" class="st2" transform="matrix(1,0,0,1,0,3.00236)"/></g><path d="M8.91 841.89 L104.48 841.89 A8.90683 8.90683 -180 0 0 113.39 832.98 A8.90683 8.90683 -180 0 0 104.48 824.08 L8.91 824.08 A8.90683 8.90683 -180 0 0 -0 832.98 A8.90683 8.90683 -180 0 0 8.91 841.89 Z" class="st5"/><text x="17.68" y="835.98" class="st4">Kernel y() {a();} <tspan class="st9">‘</tspan><tspan class="st9">S</tspan><tspan class="st9">2</tspan><tspan class="st9">’</tspan></text></g><g id="shape38-177" transform="translate(195.591,-450.306)"><title>Rounded Rectangle.38</title><desc>void a() {…}</desc><g id="shadow38-178" class="st1"><path d="M8.91 841.89 L104.48 841.89 A8.90683 8.90683 -180 0 0 113.39 832.98 A8.90683 8.90683 -180 0 0 104.48 824.08 L8.91 824.08 A8.90683 8.90683 -180 0 0 -0 832.98 A8.90683 8.90683 -180 0 0 8.91 841.89 Z" class="st2" transform="matrix(1,0,0,1,0,3.00236)"/></g><path d="M8.91 841.89 L104.48 841.89 A8.90683 8.90683 -180 0 0 113.39 832.98 A8.90683 8.90683 -180 0 0 104.48 824.08 L8.91 824.08 A8.90683 8.90683 -180 0 0 -0 832.98 A8.90683 8.90683 -180 0 0 8.91 841.89 Z" class="st5"/><text x="34.87" y="835.98" class="st4">void a() {…}</text></g><g id="shape39-184" transform="translate(195.591,-430.06)"><title>Rounded Rectangle.39</title><desc>void b() {…}</desc><g id="shadow39-185" class="st1"><path d="M8.91 841.89 L104.48 841.89 A8.90683 8.90683 -180 0 0 113.39 832.98 A8.90683 8.90683 -180 0 0 104.48 824.08 L8.91 824.08 A8.90683 8.90683 -180 0 0 -0 832.98 A8.90683 8.90683 -180 0 0 8.91 841.89 Z" class="st2" transform="matrix(1,0,0,1,0,3.00236)"/></g><path d="M8.91 841.89 L104.48 841.89 A8.90683 8.90683 -180 0 0 113.39 832.98 A8.90683 8.90683 -180 0 0 104.48 824.08 L8.91 824.08 A8.90683 8.90683 -180 0 0 -0 832.98 A8.90683 8.90683 -180 0 0 8.91 841.89 Z" class="st5"/><text x="34.64" y="835.98" class="st4">void b() {…}</text></g><g id="shape40-191" transform="translate(245.197,-552.353)"><title>Dynamic connector.40</title><path d="M7.09 841.89 L7.09 855.98" class="st7"/></g><g id="shape41-196" transform="translate(212.598,-385.512)"><title>Rectangle.41</title><desc>split</desc><g id="shadow41-197" class="st1" transform="matrix(1,0,0,1,0,3.00236)"><rect width="79.37" height="17.814" x="0" y="824.076" class="st2"/></g><rect width="79.37" height="17.814" x="0" y="824.076" class="st6"/><text x="31.13" y="835.98" class="st10">split</text></g><g id="shape44-203" transform="translate(245.197,-425.197)"><title>Dynamic connector.44</title><path d="M7.09 841.89 L7.09 857.6" class="st7"/></g><g id="shape55-208" transform="translate(42.5197,-289.134)"><title>Rounded Rectangle.55</title><path d="M20.41 841.89 L183.69 841.89 A20.4091 20.4091 -180 0 0 204.09 821.48 L204.09 787.79 A20.4091 20.4091 -180 0 0 183.69 767.38 L20.41 767.38 A20.4091 20.4091 -180 0 0 -0 787.79 L0 821.48 A20.4091 20.4091 -180 0 0 20.41 841.89 Z" class="st11"/></g><g id="shape57-210" transform="translate(122.337,-293.184)"><title>Rounded Rectangle.57</title><desc>S1.bc</desc><g id="shadow57-211" class="st1"><path d="M11.34 841.89 L102.05 841.89 A11.3384 11.3384 -180 0 0 113.39 830.55 L113.39 787.63 A11.3384 11.3384 -180 0 0 102.05 776.29 L11.34 776.29 A11.3384 11.3384 -180 0 0 0 787.63 L0 830.55 A11.3384 11.3384 -180 0 0 11.34 841.89 Z" class="st2" transform="matrix(1,0,0,1,0,3.00236)"/></g><path d="M11.34 841.89 L102.05 841.89 A11.3384 11.3384 -180 0 0 113.39 830.55 L113.39 787.63 A11.3384 11.3384 -180 0 0 102.05 776.29 L11.34 776.29 A11.3384 11.3384 -180 0 0 0 787.63 L0 830.55 A11.3384 11.3384 -180 0 0 11.34 841.89 Z" class="st3"/><text x="4" y="789.29" class="st4">S1.bc</text></g><g id="shape58-217" transform="translate(122.337,-298.854)"><title>Rounded Rectangle.58</title><desc>void b() {…}</desc><g id="shadow58-218" class="st1"><path d="M8.91 841.89 L104.48 841.89 A8.90683 8.90683 -180 0 0 113.39 832.98 A8.90683 8.90683 -180 0 0 104.48 824.08 L8.91 824.08 A8.90683 8.90683 -180 0 0 -0 832.98 A8.90683 8.90683 -180 0 0 8.91 841.89 Z" class="st2" transform="matrix(1,0,0,1,0,3.00236)"/></g><path d="M8.91 841.89 L104.48 841.89 A8.90683 8.90683 -180 0 0 113.39 832.98 A8.90683 8.90683 -180 0 0 104.48 824.08 L8.91 824.08 A8.90683 8.90683 -180 0 0 -0 832.98 A8.90683 8.90683 -180 0 0 8.91 841.89 Z" class="st5"/><text x="34.64" y="835.98" class="st4">void b() {…}</text></g><g id="shape59-224" transform="translate(122.337,-318.293)"><title>Rounded Rectangle.59</title><desc>Kernel x() {b();}</desc><g id="shadow59-225" class="st1"><path d="M8.91 841.89 L104.48 841.89 A8.90683 8.90683 -180 0 0 113.39 832.98 A8.90683 8.90683 -180 0 0 104.48 824.08 L8.91 824.08 A8.90683 8.90683 -180 0 0 -0 832.98 A8.90683 8.90683 -180 0 0 8.91 841.89 Z" class="st2" transform="matrix(1,0,0,1,0,3.00236)"/></g><path d="M8.91 841.89 L104.48 841.89 A8.90683 8.90683 -180 0 0 113.39 832.98 A8.90683 8.90683 -180 0 0 104.48 824.08 L8.91 824.08 A8.90683 8.90683 -180 0 0 -0 832.98 A8.90683 8.90683 -180 0 0 8.91 841.89 Z" class="st5"/><text x="26" y="835.98" class="st4">Kernel x() {b();}</text></g><g id="shape60-231" transform="translate(52.5528,-293.587)"><title>Rounded Rectangle.60</title><desc>S1.txt</desc><g id="shadow60-232" class="st1"><path d="M6.5 841.89 L58.48 841.89 A6.4972 6.4972 -180 0 0 64.97 835.39 L64.97 782.79 A6.4972 6.4972 -180 0 0 58.48 776.29 L6.5 776.29 A6.4972 6.4972 -180 0 0 0 782.79 L0 835.39 A6.4972 6.4972 -180 0 0 6.5 841.89 Z" class="st2" transform="matrix(1,0,0,1,0,3.00236)"/></g><path d="M6.5 841.89 L58.48 841.89 A6.4972 6.4972 -180 0 0 64.97 835.39 L64.97 782.79 A6.4972 6.4972 -180 0 0 58.48 776.29 L6.5 776.29 A6.4972 6.4972 -180 0 0 0 782.79 L0 835.39 A6.4972 6.4972 -180 0 0 6.5 841.89 Z" class="st3"/><text x="4" y="789.29" class="st4">S1.txt</text></g><g id="shape61-238" transform="translate(52.5528,-317.48)"><title>Rounded Rectangle.61</title><desc>“x”</desc><g id="shadow61-239" class="st1"><path d="M6.5 841.89 L58.48 841.89 A6.4972 6.4972 -180 0 0 64.97 835.39 L64.97 830.57 A6.4972 6.4972 -180 0 0 58.48 824.08 L6.5 824.08 A6.4972 6.4972 -180 0 0 -0 830.57 L0 835.39 A6.4972 6.4972 -180 0 0 6.5 841.89 Z" class="st2" transform="matrix(1,0,0,1,0,3.00236)"/></g><path d="M6.5 841.89 L58.48 841.89 A6.4972 6.4972 -180 0 0 64.97 835.39 L64.97 830.57 A6.4972 6.4972 -180 0 0 58.48 824.08 L6.5 824.08 A6.4972 6.4972 -180 0 0 -0 830.57 L0 835.39 A6.4972 6.4972 -180 0 0 6.5 841.89 Z" class="st5"/><text x="26.14" y="835.98" class="st4">“x”</text></g><g id="shape62-245" transform="translate(263.622,-288.731)"><title>Rounded Rectangle.62</title><path d="M20.41 841.89 L183.69 841.89 A20.4091 20.4091 -180 0 0 204.09 821.48 L204.09 787.79 A20.4091 20.4091 -180 0 0 183.69 767.38 L20.41 767.38 A20.4091 20.4091 -180 0 0 -0 787.79 L0 821.48 A20.4091 20.4091 -180 0 0 20.41 841.89 Z" class="st11"/></g><g id="shape63-247" transform="translate(343.44,-292.781)"><title>Rounded Rectangle.63</title><desc>S2.bc</desc><g id="shadow63-248" class="st1"><path d="M11.34 841.89 L102.05 841.89 A11.3384 11.3384 -180 0 0 113.39 830.55 L113.39 787.63 A11.3384 11.3384 -180 0 0 102.05 776.29 L11.34 776.29 A11.3384 11.3384 -180 0 0 0 787.63 L0 830.55 A11.3384 11.3384 -180 0 0 11.34 841.89 Z" class="st2" transform="matrix(1,0,0,1,0,3.00236)"/></g><path d="M11.34 841.89 L102.05 841.89 A11.3384 11.3384 -180 0 0 113.39 830.55 L113.39 787.63 A11.3384 11.3384 -180 0 0 102.05 776.29 L11.34 776.29 A11.3384 11.3384 -180 0 0 0 787.63 L0 830.55 A11.3384 11.3384 -180 0 0 11.34 841.89 Z" class="st3"/><text x="4" y="789.29" class="st4">S2.bc</text></g><g id="shape64-254" transform="translate(343.44,-298.451)"><title>Rounded Rectangle.64</title><desc>void a() {…}</desc><g id="shadow64-255" class="st1"><path d="M8.91 841.89 L104.48 841.89 A8.90683 8.90683 -180 0 0 113.39 832.98 A8.90683 8.90683 -180 0 0 104.48 824.08 L8.91 824.08 A8.90683 8.90683 -180 0 0 -0 832.98 A8.90683 8.90683 -180 0 0 8.91 841.89 Z" class="st2" transform="matrix(1,0,0,1,0,3.00236)"/></g><path d="M8.91 841.89 L104.48 841.89 A8.90683 8.90683 -180 0 0 113.39 832.98 A8.90683 8.90683 -180 0 0 104.48 824.08 L8.91 824.08 A8.90683 8.90683 -180 0 0 -0 832.98 A8.90683 8.90683 -180 0 0 8.91 841.89 Z" class="st5"/><text x="34.87" y="835.98" class="st4">void a() {…}</text></g><g id="shape65-261" transform="translate(343.44,-317.89)"><title>Rounded Rectangle.65</title><desc>Kernel y() {a();}</desc><g id="shadow65-262" class="st1"><path d="M8.91 841.89 L104.48 841.89 A8.90683 8.90683 -180 0 0 113.39 832.98 A8.90683 8.90683 -180 0 0 104.48 824.08 L8.91 824.08 A8.90683 8.90683 -180 0 0 -0 832.98 A8.90683 8.90683 -180 0 0 8.91 841.89 Z" class="st2" transform="matrix(1,0,0,1,0,3.00236)"/></g><path d="M8.91 841.89 L104.48 841.89 A8.90683 8.90683 -180 0 0 113.39 832.98 A8.90683 8.90683 -180 0 0 104.48 824.08 L8.91 824.08 A8.90683 8.90683 -180 0 0 -0 832.98 A8.90683 8.90683 -180 0 0 8.91 841.89 Z" class="st5"/><text x="26.14" y="835.98" class="st4">Kernel y() {a();}</text></g><g id="shape66-268" transform="translate(273.655,-293.184)"><title>Rounded Rectangle.66</title><desc>S2.txt</desc><g id="shadow66-269" class="st1"><path d="M6.5 841.89 L58.48 841.89 A6.4972 6.4972 -180 0 0 64.97 835.39 L64.97 782.79 A6.4972 6.4972 -180 0 0 58.48 776.29 L6.5 776.29 A6.4972 6.4972 -180 0 0 0 782.79 L0 835.39 A6.4972 6.4972 -180 0 0 6.5 841.89 Z" class="st2" transform="matrix(1,0,0,1,0,3.00236)"/></g><path d="M6.5 841.89 L58.48 841.89 A6.4972 6.4972 -180 0 0 64.97 835.39 L64.97 782.79 A6.4972 6.4972 -180 0 0 58.48 776.29 L6.5 776.29 A6.4972 6.4972 -180 0 0 0 782.79 L0 835.39 A6.4972 6.4972 -180 0 0 6.5 841.89 Z" class="st3"/><text x="4" y="789.29" class="st4">S2.txt</text></g><g id="shape67-275" transform="translate(273.655,-317.077)"><title>Rounded Rectangle.67</title><desc>“y”</desc><g id="shadow67-276" class="st1"><path d="M6.5 841.89 L58.48 841.89 A6.4972 6.4972 -180 0 0 64.97 835.39 L64.97 830.57 A6.4972 6.4972 -180 0 0 58.48 824.08 L6.5 824.08 A6.4972 6.4972 -180 0 0 -0 830.57 L0 835.39 A6.4972 6.4972 -180 0 0 6.5 841.89 Z" class="st2" transform="matrix(1,0,0,1,0,3.00236)"/></g><path d="M6.5 841.89 L58.48 841.89 A6.4972 6.4972 -180 0 0 64.97 835.39 L64.97 830.57 A6.4972 6.4972 -180 0 0 58.48 824.08 L6.5 824.08 A6.4972 6.4972 -180 0 0 -0 830.57 L0 835.39 A6.4972 6.4972 -180 0 0 6.5 841.89 Z" class="st5"/><text x="26.04" y="835.98" class="st4">“y”</text></g><g id="shape68-282" transform="translate(252.283,-385.512)"><title>Dynamic connector.68</title><path d="M0 841.89 L0 850.18 A2.34 2.34 -180 0 0 2.34 852.52 L111.05 852.52 A2.34 2.34 0 0 1 113.39 854.86 L113.39 858" class="st7"/></g><g id="shape69-287" transform="translate(252.283,-385.512)"><title>Dynamic connector.69</title><path d="M0 841.89 L0 850.18 A2.34 2.34 0 0 1 -2.34 852.52 L-105.38 852.52 A2.34 2.34 -180 0 0 -107.72 854.86 L-107.72 857.6" class="st7"/></g><g id="shape70-292" transform="translate(133.228,-255.118)"><title>Rectangle.70</title><desc>llvm-spirv</desc><g id="shadow70-293" class="st1" transform="matrix(1,0,0,1,0,3.00236)"><rect width="79.37" height="17.814" x="0" y="824.076" class="st2"/></g><rect width="79.37" height="17.814" x="0" y="824.076" class="st6"/><text x="21.01" y="835.98" class="st4">llvm-spirv</text></g><g id="shape71-299" transform="translate(133.228,-221.505)"><title>Rounded Rectangle.71</title><desc>S1.spv</desc><g id="shadow71-300" class="st1"><path d="M7.94 841.89 L71.43 841.89 A7.93688 7.93688 -180 0 0 79.37 833.95 L79.37 832.01 A7.93688 7.93688 -180 0 0 71.43 824.08 L7.94 824.08 A7.93688 7.93688 -180 0 0 -0 832.01 L0 833.95 A7.93688 7.93688 -180 0 0 7.94 841.89 Z" class="st2" transform="matrix(1,0,0,1,0,3.00236)"/></g><path d="M7.94 841.89 L71.43 841.89 A7.93688 7.93688 -180 0 0 79.37 833.95 L79.37 832.01 A7.93688 7.93688 -180 0 0 71.43 824.08 L7.94 824.08 A7.93688 7.93688 -180 0 0 -0 832.01 L0 833.95 A7.93688 7.93688 -180 0 0 7.94 841.89 Z" class="st5"/><text x="26.75" y="835.98" class="st4">S1.spv</text></g><g id="shape72-306" transform="translate(133.228,-187.893)"><title>Rectangle.72</title><desc>aot</desc><g id="shadow72-307" class="st1"><path d="M0 841.89 L79.37 841.89 L79.37 824.08 L0 824.08 L0 841.89 Z" class="st12" transform="matrix(1,0,0,1,0,3.00236)"/></g><path d="M0 841.89 L79.37 841.89 L79.37 824.08 L0 824.08 L0 841.89 Z" class="st13"/><text x="32.98" y="835.98" class="st4">aot</text></g><g id="shape73-313" transform="translate(133.228,-154.28)"><title>Rounded Rectangle.73</title><desc>S1.bin</desc><g id="shadow73-314" class="st1"><path d="M7.94 841.89 L71.43 841.89 A7.93688 7.93688 -180 0 0 79.37 833.95 L79.37 832.01 A7.93688 7.93688 -180 0 0 71.43 824.08 L7.94 824.08 A7.93688 7.93688 -180 0 0 -0 832.01 L0 833.95 A7.93688 7.93688 -180 0 0 7.94 841.89 Z" class="st12" transform="matrix(1,0,0,1,0,3.00236)"/></g><path d="M7.94 841.89 L71.43 841.89 A7.93688 7.93688 -180 0 0 79.37 833.95 L79.37 832.01 A7.93688 7.93688 -180 0 0 71.43 824.08 L7.94 824.08 A7.93688 7.93688 -180 0 0 -0 832.01 L0 833.95 A7.93688 7.93688 -180 0 0 7.94 841.89 Z" class="st14"/><text x="27.19" y="835.98" class="st4">S1.bin</text></g><g id="shape74-321" transform="translate(354.331,-254.111)"><title>Rectangle.74</title><desc>llvm-spirv</desc><g id="shadow74-322" class="st1" transform="matrix(1,0,0,1,0,3.00236)"><rect width="79.37" height="17.814" x="0" y="824.076" class="st2"/></g><rect width="79.37" height="17.814" x="0" y="824.076" class="st6"/><text x="21.01" y="835.98" class="st4">llvm-spirv</text></g><g id="shape75-328" transform="translate(354.331,-220.498)"><title>Rounded Rectangle.75</title><desc>S2.spv</desc><g id="shadow75-329" class="st1"><path d="M7.94 841.89 L71.43 841.89 A7.93688 7.93688 -180 0 0 79.37 833.95 L79.37 832.01 A7.93688 7.93688 -180 0 0 71.43 824.08 L7.94 824.08 A7.93688 7.93688 -180 0 0 -0 832.01 L0 833.95 A7.93688 7.93688 -180 0 0 7.94 841.89 Z" class="st2" transform="matrix(1,0,0,1,0,3.00236)"/></g><path d="M7.94 841.89 L71.43 841.89 A7.93688 7.93688 -180 0 0 79.37 833.95 L79.37 832.01 A7.93688 7.93688 -180 0 0 71.43 824.08 L7.94 824.08 A7.93688 7.93688 -180 0 0 -0 832.01 L0 833.95 A7.93688 7.93688 -180 0 0 7.94 841.89 Z" class="st5"/><text x="26.75" y="835.98" class="st4">S2.spv</text></g><g id="shape76-335" transform="translate(354.331,-186.885)"><title>Rectangle.76</title><desc>aot</desc><g id="shadow76-336" class="st1"><path d="M0 841.89 L79.37 841.89 L79.37 824.08 L0 824.08 L0 841.89 Z" class="st12" transform="matrix(1,0,0,1,0,3.00236)"/></g><path d="M0 841.89 L79.37 841.89 L79.37 824.08 L0 824.08 L0 841.89 Z" class="st13"/><text x="32.98" y="835.98" class="st4">aot</text></g><g id="shape77-342" transform="translate(354.331,-153.272)"><title>Rounded Rectangle.77</title><desc>S2.bin</desc><g id="shadow77-343" class="st1"><path d="M7.94 841.89 L71.43 841.89 A7.93688 7.93688 -180 0 0 79.37 833.95 L79.37 832.01 A7.93688 7.93688 -180 0 0 71.43 824.08 L7.94 824.08 A7.93688 7.93688 -180 0 0 -0 832.01 L0 833.95 A7.93688 7.93688 -180 0 0 7.94 841.89 Z" class="st12" transform="matrix(1,0,0,1,0,3.00236)"/></g><path d="M7.94 841.89 L71.43 841.89 A7.93688 7.93688 -180 0 0 79.37 833.95 L79.37 832.01 A7.93688 7.93688 -180 0 0 71.43 824.08 L7.94 824.08 A7.93688 7.93688 -180 0 0 -0 832.01 L0 833.95 A7.93688 7.93688 -180 0 0 7.94 841.89 Z" class="st14"/><text x="27.19" y="835.98" class="st4">S2.bin</text></g><g id="shape78-349" transform="translate(183.058,-293.184)"><title>Dynamic connector.78</title><path d="M-4.03 841.89 L-4.03 850.18 A2.34 2.34 0 0 1 -6.37 852.52 L-7.81 852.52 A2.34 2.34 -180 0 0 -10.15 854.86 L-10.15 855.98" class="st7"/></g><g id="shape79-354" transform="translate(165.827,-255.118)"><title>Dynamic connector.79</title><path d="M7.09 841.89 L7.09 851.53" class="st7"/></g><g id="shape80-359" transform="translate(165.827,-221.505)"><title>Dynamic connector.80</title><path d="M7.09 841.89 L7.09 851.53" class="st7"/></g><g id="shape81-364" transform="translate(165.827,-187.893)"><title>Dynamic connector.81</title><path d="M7.09 841.89 L7.09 851.53" class="st7"/></g><g id="shape83-369" transform="translate(404.161,-292.781)"><title>Dynamic connector.83</title><path d="M-4.03 841.89 L-4.03 850.18 A2.34 2.34 0 0 1 -6.37 852.52 L-7.81 852.52 A2.34 2.34 -180 0 0 -10.15 854.86 L-10.15 856.59" class="st7"/></g><g id="shape84-374" transform="translate(386.929,-254.111)"><title>Dynamic connector.84</title><path d="M7.09 841.89 L7.09 851.53" class="st7"/></g><g id="shape85-379" transform="translate(386.929,-220.498)"><title>Dynamic connector.85</title><path d="M7.09 841.89 L7.09 851.53" class="st7"/></g><g id="shape88-384" transform="translate(212.598,-99.2126)"><title>Rectangle.88</title><desc>clang-offload-wrapper</desc><g id="shadow88-385" class="st1" transform="matrix(1,0,0,1,0,3.00236)"><rect width="113.386" height="17.814" x="0" y="824.076" class="st2"/></g><rect width="113.386" height="17.814" x="0" y="824.076" class="st6"/><text x="11.3" y="835.98" class="st4">clang-offload-wrapper</text></g><g id="shape89-391" transform="translate(85.0394,-293.587)"><title>Dynamic connector.89</title><path d="M0 841.89 L0 1005.48 A2.34 2.34 -180 0 0 2.34 1007.82 L181.91 1007.82 A2.34 2.34 0 0 1 184.25 1010.16 L184.25 1012.29" class="st7"/></g><g id="shape91-396" transform="translate(172.913,-154.28)"><title>Dynamic connector.91</title><path d="M0 841.89 L0 866.17 A2.34 2.34 -180 0 0 2.34 868.51 L94.04 868.51 A2.34 2.34 0 0 1 96.38 870.85 L96.38 872.98" class="st7"/></g><g id="shape92-401" transform="translate(394.016,-153.272)"><title>Dynamic connector.92</title><path d="M0 841.89 L0 866.01 A2.34 2.34 0 0 1 -2.34 868.35 L-122.38 868.35 A2.34 2.34 -180 0 0 -124.72 870.69 L-124.72 871.98" class="st7"/></g><g id="shape93-406" transform="translate(306.142,-293.184)"><title>Dynamic connector.93</title><path d="M0 841.89 L0 1005.92 A2.34 2.34 0 0 1 -2.34 1008.26 L-34.51 1008.26 A2.34 2.34 -180 0 0 -36.85 1010.6 L-36.85 1011.89" class="st7"/></g></g></svg>