<svg xmlns="http://www.w3.org/2000/svg" xmlns:svg="http://www.w3.org/2000/svg" id="svg8" width="1044.03" height="269.11" version="1.1" viewBox="0 0 276.233 71.202"><defs id="defs2"><rect id="rect1123" width="201.254" height="27.796" x="-47.094" y="102.845"/><rect id="rect1117" width="109.1" height="25.178" x="-99.746" y="26.673"/></defs><metadata id="metadata5"/><g id="layer1" transform="translate(135.59491,-1.0149053)"><rect id="rect833-4" width="15.769" height="15.234" x="40.892" y="51.85" rx="1.693" ry="1.2" style="fill:#c50000;fill-opacity:1;stroke:#000;stroke-width:.264583;stroke-opacity:1"/><rect id="rect833-6" width="15.769" height="15.234" x="40.892" y="6.147" rx="1.693" ry="1.2" style="fill:none;stroke:#000;stroke-width:.264583;stroke-opacity:1"/><rect style="fill:#c50000;fill-opacity:1;stroke:#000;stroke-width:.264583;stroke-opacity:1" id="rect833-4-9" width="15.769" height="15.234" x="103.968" y="21.382" rx="1.693" ry="1.2"/><rect id="rect833-3" width="15.769" height="15.234" x="25.123" y="6.147" rx="1.693" ry="1.2" style="fill:none;stroke:#000;stroke-width:.264583;stroke-opacity:1"/><rect style="fill:#c50000;fill-opacity:1;stroke:#000;stroke-width:.264583;stroke-opacity:1" id="rect833-4-3" width="15.769" height="15.234" x="103.968" y="51.85" rx="1.693" ry="1.2"/><rect id="rect833-5" width="15.769" height="15.234" x="9.354" y="6.147" rx="1.693" ry="1.2" style="fill:none;stroke:#000;stroke-width:.264583;stroke-opacity:1"/><rect style="fill:#c50000;fill-opacity:1;stroke:#000;stroke-width:.264583;stroke-opacity:1" id="rect833-4-6" width="15.769" height="15.234" x="40.892" y="21.382" rx="1.693" ry="1.2"/><rect style="fill:none;stroke:#000;stroke-width:.264583;stroke-opacity:1" id="rect833-6-8" width="15.769" height="15.234" x="56.661" y="6.147" rx="1.693" ry="1.2"/><rect style="fill:none;stroke:#000;stroke-width:.264583;stroke-opacity:1" id="rect833-6-4" width="15.769" height="15.234" x="103.968" y="6.147" rx="1.693" ry="1.2"/><rect style="fill:none;stroke:#000;stroke-width:.264583;stroke-opacity:1" id="rect833-3-2" width="15.769" height="15.234" x="88.199" y="6.147" rx="1.693" ry="1.2"/><rect style="fill:none;stroke:#000;stroke-width:.264583;stroke-opacity:1" id="rect833-5-3" width="15.769" height="15.234" x="72.43" y="6.147" rx="1.693" ry="1.2"/><rect id="rect833-6-8-3" width="15.769" height="15.234" x="119.737" y="6.147" rx="1.693" ry="1.2" style="fill:none;stroke:#000;stroke-width:.264583;stroke-opacity:1"/><rect style="fill:none;stroke:#000;stroke-width:.264583;stroke-opacity:1" id="rect833-3-4" width="15.769" height="15.234" x="25.123" y="21.382" rx="1.693" ry="1.2"/><rect style="fill:none;stroke:#000;stroke-width:.264583;stroke-opacity:1" id="rect833-5-1" width="15.769" height="15.234" x="9.354" y="21.382" rx="1.693" ry="1.2"/><rect id="rect833-6-8-0" width="15.769" height="15.234" x="56.661" y="21.382" rx="1.693" ry="1.2" style="fill:none;stroke:#000;stroke-width:.264583;stroke-opacity:1"/><rect id="rect833-3-2-7" width="15.769" height="15.234" x="88.199" y="21.382" rx="1.693" ry="1.2" style="fill:none;stroke:#000;stroke-width:.264583;stroke-opacity:1"/><rect id="rect833-5-3-0" width="15.769" height="15.234" x="72.43" y="21.382" rx="1.693" ry="1.2" style="fill:none;stroke:#000;stroke-width:.264583;stroke-opacity:1"/><rect style="fill:none;stroke:#000;stroke-width:.264583;stroke-opacity:1" id="rect833-6-8-3-6" width="15.769" height="15.234" x="119.737" y="21.382" rx="1.693" ry="1.2"/><rect id="rect833-6-9-4" width="15.769" height="15.234" x="40.892" y="36.616" rx="1.693" ry="1.2" style="fill:none;stroke:#000;stroke-width:.264583;stroke-opacity:1"/><rect id="rect833-3-4-7" width="15.769" height="15.234" x="25.123" y="36.616" rx="1.693" ry="1.2" style="fill:none;stroke:#000;stroke-width:.264583;stroke-opacity:1"/><rect id="rect833-5-1-3" width="15.769" height="15.234" x="9.354" y="36.616" rx="1.693" ry="1.2" style="fill:none;stroke:#000;stroke-width:.264583;stroke-opacity:1"/><rect style="fill:none;stroke:#000;stroke-width:.264583;stroke-opacity:1" id="rect833-6-8-0-8" width="15.769" height="15.234" x="56.661" y="36.616" rx="1.693" ry="1.2"/><rect style="fill:none;stroke:#000;stroke-width:.264583;stroke-opacity:1" id="rect833-6-4-6-5" width="15.769" height="15.234" x="103.968" y="36.616" rx="1.693" ry="1.2"/><rect style="fill:none;stroke:#000;stroke-width:.264583;stroke-opacity:1" id="rect833-3-2-7-6" width="15.769" height="15.234" x="88.199" y="36.616" rx="1.693" ry="1.2"/><rect style="fill:none;stroke:#000;stroke-width:.264583;stroke-opacity:1" id="rect833-5-3-0-3" width="15.769" height="15.234" x="72.43" y="36.616" rx="1.693" ry="1.2"/><rect id="rect833-6-8-3-6-2" width="15.769" height="15.234" x="119.737" y="36.616" rx="1.693" ry="1.2" style="fill:none;stroke:#000;stroke-width:.264583;stroke-opacity:1"/><rect style="fill:none;stroke:#000;stroke-width:.264583;stroke-opacity:1" id="rect833-3-4-7-3" width="15.769" height="15.234" x="25.123" y="51.85" rx="1.693" ry="1.2"/><rect style="fill:none;stroke:#000;stroke-width:.264583;stroke-opacity:1" id="rect833-5-1-3-3" width="15.769" height="15.234" x="9.354" y="51.85" rx="1.693" ry="1.2"/><rect id="rect833-6-8-0-8-3" width="15.769" height="15.234" x="56.661" y="51.85" rx="1.693" ry="1.2" style="fill:none;stroke:#000;stroke-width:.264583;stroke-opacity:1"/><rect id="rect833-3-2-7-6-9" width="15.769" height="15.234" x="88.199" y="51.85" rx="1.693" ry="1.2" style="fill:none;stroke:#000;stroke-width:.264583;stroke-opacity:1"/><rect id="rect833-5-3-0-3-4" width="15.769" height="15.234" x="72.43" y="51.85" rx="1.693" ry="1.2" style="fill:none;stroke:#000;stroke-width:.264583;stroke-opacity:1"/><rect style="fill:none;stroke:#000;stroke-width:.264583;stroke-opacity:1" id="rect833-6-8-3-6-2-6" width="15.769" height="15.234" x="119.737" y="51.85" rx="1.693" ry="1.2"/><text style="font-style:normal;font-weight:400;font-size:10.5833px;line-height:1.25;font-family:sans-serif;letter-spacing:0;word-spacing:0;white-space:pre;shape-inside:url(#rect1123);fill:#000;fill-opacity:1;stroke:none" id="text1121" transform="translate(-84.457171,-72.430042)" xml:space="preserve"><tspan x="-47.094" y="112.499"><tspan>m1.select&lt;2,2,2,4&gt;(1, 2)</tspan></tspan></text></g></svg>