<svg xmlns="http://www.w3.org/2000/svg" xmlns:svg="http://www.w3.org/2000/svg" id="svg8" width="1044.03" height="269.11" version="1.1" viewBox="0 0 276.233 71.202"><defs id="defs2"><rect id="rect2415" width="309.498" height="100.493" x="170.429" y="93.223"/><rect id="rect1123" width="201.254" height="27.796" x="-47.094" y="102.845"/><rect id="rect1117" width="109.1" height="25.178" x="-99.746" y="26.673"/></defs><metadata id="metadata5"/><g id="layer1" transform="translate(135.59491,-1.5494455)"><rect id="rect833-4" width="15.769" height="15.234" x="40.892" y="6.682" rx="1.693" ry="1.2" style="fill:#c50000;fill-opacity:1;stroke:#000;stroke-width:.264583;stroke-opacity:1"/><rect id="rect833-3" width="15.769" height="15.234" x="56.661" y="6.682" rx="1.693" ry="1.2" style="fill:none;stroke:#000;stroke-width:.264583;stroke-opacity:1"/><rect id="rect833-5" width="15.769" height="15.234" x="25.123" y="6.682" rx="1.693" ry="1.2" style="fill:none;stroke:#000;stroke-width:.264583;stroke-opacity:1"/><rect style="fill:#c50000;fill-opacity:1;stroke:#000;stroke-width:.264583;stroke-opacity:1" id="rect833-4-6" width="15.769" height="15.234" x="9.354" y="6.682" rx="1.693" ry="1.2"/><text style="font-style:normal;font-weight:400;font-size:10.5833px;line-height:1.25;font-family:sans-serif;letter-spacing:0;word-spacing:0;white-space:pre;shape-inside:url(#rect1123);fill:#000;fill-opacity:1;stroke:none" id="text1121" transform="translate(-84.457171,-72.430042)" xml:space="preserve"><tspan x="-47.094" y="112.499"><tspan>m1.select&lt;4,1,4,2&gt;(0, 0)</tspan></tspan></text><rect style="fill:#c50000;fill-opacity:1;stroke:#000;stroke-width:.264583;stroke-opacity:1" id="rect833-4-5" width="15.769" height="15.234" x="103.968" y="6.682" rx="1.693" ry="1.2"/><rect style="fill:none;stroke:#000;stroke-width:.264583;stroke-opacity:1" id="rect833-3-1" width="15.769" height="15.234" x="119.737" y="6.682" rx="1.693" ry="1.2"/><rect style="fill:none;stroke:#000;stroke-width:.264583;stroke-opacity:1" id="rect833-5-0" width="15.769" height="15.234" x="88.199" y="6.682" rx="1.693" ry="1.2"/><rect id="rect833-4-6-3" width="15.769" height="15.234" x="72.43" y="6.682" rx="1.693" ry="1.2" style="fill:#c50000;fill-opacity:1;stroke:#000;stroke-width:.264583;stroke-opacity:1"/><rect style="fill:#c50000;fill-opacity:1;stroke:#000;stroke-width:.264583;stroke-opacity:1" id="rect833-4-56" width="15.769" height="15.234" x="40.892" y="21.916" rx="1.693" ry="1.2"/><rect style="fill:none;stroke:#000;stroke-width:.264583;stroke-opacity:1" id="rect833-3-7" width="15.769" height="15.234" x="56.661" y="21.916" rx="1.693" ry="1.2"/><rect style="fill:none;stroke:#000;stroke-width:.264583;stroke-opacity:1" id="rect833-5-08" width="15.769" height="15.234" x="25.123" y="21.916" rx="1.693" ry="1.2"/><rect id="rect833-4-6-5" width="15.769" height="15.234" x="9.354" y="21.916" rx="1.693" ry="1.2" style="fill:#c50000;fill-opacity:1;stroke:#000;stroke-width:.264583;stroke-opacity:1"/><rect id="rect833-4-5-0" width="15.769" height="15.234" x="103.968" y="21.916" rx="1.693" ry="1.2" style="fill:#c50000;fill-opacity:1;stroke:#000;stroke-width:.264583;stroke-opacity:1"/><rect id="rect833-3-1-1" width="15.769" height="15.234" x="119.737" y="21.916" rx="1.693" ry="1.2" style="fill:none;stroke:#000;stroke-width:.264583;stroke-opacity:1"/><rect id="rect833-5-0-2" width="15.769" height="15.234" x="88.199" y="21.916" rx="1.693" ry="1.2" style="fill:none;stroke:#000;stroke-width:.264583;stroke-opacity:1"/><rect style="fill:#c50000;fill-opacity:1;stroke:#000;stroke-width:.264583;stroke-opacity:1" id="rect833-4-6-3-7" width="15.769" height="15.234" x="72.43" y="21.916" rx="1.693" ry="1.2"/><rect style="fill:#c50000;fill-opacity:1;stroke:#000;stroke-width:.264583;stroke-opacity:1" id="rect833-4-7" width="15.769" height="15.234" x="40.892" y="37.15" rx="1.693" ry="1.2"/><rect style="fill:none;stroke:#000;stroke-width:.264583;stroke-opacity:1" id="rect833-3-11" width="15.769" height="15.234" x="56.661" y="37.15" rx="1.693" ry="1.2"/><rect style="fill:none;stroke:#000;stroke-width:.264583;stroke-opacity:1" id="rect833-5-6" width="15.769" height="15.234" x="25.123" y="37.15" rx="1.693" ry="1.2"/><rect id="rect833-4-6-37" width="15.769" height="15.234" x="9.354" y="37.15" rx="1.693" ry="1.2" style="fill:#c50000;fill-opacity:1;stroke:#000;stroke-width:.264583;stroke-opacity:1"/><rect id="rect833-4-5-1" width="15.769" height="15.234" x="103.968" y="37.15" rx="1.693" ry="1.2" style="fill:#c50000;fill-opacity:1;stroke:#000;stroke-width:.264583;stroke-opacity:1"/><rect id="rect833-3-1-3" width="15.769" height="15.234" x="119.737" y="37.15" rx="1.693" ry="1.2" style="fill:none;stroke:#000;stroke-width:.264583;stroke-opacity:1"/><rect id="rect833-5-0-8" width="15.769" height="15.234" x="88.199" y="37.15" rx="1.693" ry="1.2" style="fill:none;stroke:#000;stroke-width:.264583;stroke-opacity:1"/><rect style="fill:#c50000;fill-opacity:1;stroke:#000;stroke-width:.264583;stroke-opacity:1" id="rect833-4-6-3-8" width="15.769" height="15.234" x="72.43" y="37.15" rx="1.693" ry="1.2"/><rect style="fill:#c50000;fill-opacity:1;stroke:#000;stroke-width:.264583;stroke-opacity:1" id="rect833-4-59" width="15.769" height="15.234" x="40.892" y="52.385" rx="1.693" ry="1.2"/><rect style="fill:none;stroke:#000;stroke-width:.264583;stroke-opacity:1" id="rect833-3-46" width="15.769" height="15.234" x="56.661" y="52.385" rx="1.693" ry="1.2"/><rect style="fill:none;stroke:#000;stroke-width:.264583;stroke-opacity:1" id="rect833-5-9" width="15.769" height="15.234" x="25.123" y="52.385" rx="1.693" ry="1.2"/><rect id="rect833-4-6-1" width="15.769" height="15.234" x="9.354" y="52.385" rx="1.693" ry="1.2" style="fill:#c50000;fill-opacity:1;stroke:#000;stroke-width:.264583;stroke-opacity:1"/><rect id="rect833-4-5-12" width="15.769" height="15.234" x="103.968" y="52.385" rx="1.693" ry="1.2" style="fill:#c50000;fill-opacity:1;stroke:#000;stroke-width:.264583;stroke-opacity:1"/><rect id="rect833-3-1-6" width="15.769" height="15.234" x="119.737" y="52.385" rx="1.693" ry="1.2" style="fill:none;stroke:#000;stroke-width:.264583;stroke-opacity:1"/><rect id="rect833-5-0-80" width="15.769" height="15.234" x="88.199" y="52.385" rx="1.693" ry="1.2" style="fill:none;stroke:#000;stroke-width:.264583;stroke-opacity:1"/><rect style="fill:#c50000;fill-opacity:1;stroke:#000;stroke-width:.264583;stroke-opacity:1" id="rect833-4-6-3-9" width="15.769" height="15.234" x="72.43" y="52.385" rx="1.693" ry="1.2"/></g></svg>