<svg xmlns="http://www.w3.org/2000/svg" xmlns:svg="http://www.w3.org/2000/svg" id="svg8" width="882.98" height="96.374" version="1.1" viewBox="0 0 233.622 25.499"><defs id="defs2"><rect id="rect1716" width="140.316" height="15.234" x="-108.566" y="8.766"/></defs><metadata id="metadata5"/><g id="layer1" transform="translate(61.178684,-2.6185225)"><rect id="rect833" width="15.769" height="15.234" x="41.16" y="7.751" rx="1.693" ry="1.2" style="fill:none;stroke:#000;stroke-width:.264583;stroke-opacity:1"/><rect style="fill:#c50000;fill-opacity:1;stroke:#000;stroke-width:.264583;stroke-opacity:1" id="rect833-4" width="15.769" height="15.234" x="56.928" y="7.751" rx="1.693" ry="1.2"/><rect style="fill:none;stroke:#000;stroke-width:.264583;stroke-opacity:1" id="rect833-6" width="15.769" height="15.234" x="135.773" y="7.751" rx="1.693" ry="1.2"/><rect id="rect833-4-9" width="15.769" height="15.234" x="151.542" y="7.751" rx="1.693" ry="1.2" style="fill:#c50000;fill-opacity:1;stroke:#000;stroke-width:.264583;stroke-opacity:1"/><rect style="fill:none;stroke:#000;stroke-width:.264583;stroke-opacity:1" id="rect833-3" width="15.769" height="15.234" x="104.235" y="7.751" rx="1.693" ry="1.2"/><rect id="rect833-4-3" width="15.769" height="15.234" x="120.004" y="7.751" rx="1.693" ry="1.2" style="fill:#c50000;fill-opacity:1;stroke:#000;stroke-width:.264583;stroke-opacity:1"/><rect style="fill:none;stroke:#000;stroke-width:.264583;stroke-opacity:1" id="rect833-5" width="15.769" height="15.234" x="72.697" y="7.751" rx="1.693" ry="1.2"/><rect id="rect833-4-6" width="15.769" height="15.234" x="88.466" y="7.751" rx="1.693" ry="1.2" style="fill:#c50000;fill-opacity:1;stroke:#000;stroke-width:.264583;stroke-opacity:1"/><text style="font-style:normal;font-weight:400;font-size:10.5833px;line-height:1.25;font-family:sans-serif;letter-spacing:0;word-spacing:0;white-space:pre;shape-inside:url(#rect1716);fill:#000;fill-opacity:1;stroke:none" id="text1714" transform="translate(51.850289,-0.53453906)" xml:space="preserve"><tspan x="-108.566" y="18.421"><tspan>a.select&lt;4,2&gt;(1)</tspan></tspan></text></g></svg>